<svg width="1440" height="389" viewBox="0 0 1440 389" fill="none" xmlns="http://www.w3.org/2000/svg">
<path d="M1443 60.3988C1438.26 58.4063 1435.17 55.2932 1432.48 56.1649C1410.05 59.9629 1393.54 76.3381 1394.2 52.5536C1384.27 50.8725 1390.91 61.9553 1372.76 49.6272C1358.42 55.9158 1375.06 44.3349 1365.53 45.2688C1375.79 50.748 1354.67 42.7783 1354.48 42.2802C1351.06 43.2141 1348.82 44.0235 1347.37 44.833C1346.91 43.0273 1345.01 40.2877 1340.27 36.3029C1321.07 18.4956 1326.07 27.1502 1318.77 24.7219C1308.05 26.8389 1309.49 15.9428 1302.39 16.0051C1285.75 24.1616 1272.01 24.4106 1269.97 15.4447C1254.38 4.73544 1262.21 19.8654 1253.06 15.3202C1249.71 17.2503 1240.7 25.0332 1240.17 18.4333C1239.58 19.9899 1228.4 24.4729 1230.44 11.5844C1219.46 5.17128 1215.05 -10.5813 1212.16 10.9618C1188.09 12.7674 1168.22 26.6521 1143.3 24.2238C1132.12 19.7409 1124.36 34.5595 1114.69 32.7539C1103.31 43.4009 1094.37 60.5856 1081.08 52.8649C1076.54 68.6175 1072.47 46.0782 1067.99 53.3008C1062.87 54.4215 1061.75 55.9781 1056.55 56.2271C1045.83 36.4274 1032.43 11.3776 1022.5 28.5C991.281 -15.6308 991.968 69.8628 976.25 68.0571C960.465 67.1232 947.707 48.0084 933.369 57.6592C910.417 46.265 886.74 41.8443 865.629 37.2991C857.474 38.3576 850.831 36.801 841.558 33.1275C828.997 45.1443 817.553 4.85996 805.123 30.1388C794.074 15.5692 782.894 34.7463 771.845 30.3879C759.283 16.2541 746.853 34.2482 734.489 25.1578C711.602 0.812855 687.4 16.8768 663.724 21.2975C650.767 8.5335 640.31 40.5368 627.815 32.6916C619.265 31.6332 611.965 31.7577 603.349 35.1822C592.366 38.0463 581.777 43.65 570.794 45.4556C551.261 64.8195 533.57 61.644 512.524 50.5612C494.504 53.114 476.484 62.3912 458.398 50.4989C445.113 40.0387 432.617 53.3008 419.266 53.6121C405.718 53.7366 392.236 52.18 378.688 53.6743C365.14 51.1838 351.592 59.8384 338.11 53.4875C323.838 53.1762 310.553 53.6121 296.676 50.5612C284.18 48.1952 276.091 66.5006 265.042 37.984C255.901 33.6256 247.877 26.5898 234.526 27.7728C228.607 21.9201 215.848 35.2444 205.062 29.5162C186.713 35.3689 186.911 34.5595 169.285 30.1388C151.265 33.1897 147.779 45.1443 138.835 29.5162C101.676 24.4106 116.803 12.4561 67.0826 32.3803C50.3777 61.1459 50.9697 29.952 11.0489 38.9802C6.31366 39.2293 2.76223 39.4161 0 39.4783V395.749C5.45868 395.935 10.9831 399.609 10.9174 406.894C11.575 416.295 26.3727 415.548 27.688 415.175C23.9393 414.303 40.1181 416.358 55.5076 417.292C81.8145 421.401 66.688 411.252 86.2209 419.533C101.479 430.118 128.246 441.45 133.245 417.354C142.255 405.337 147.121 405.773 147.845 408.575C150.541 388.9 161.788 395.811 169.614 406.956C175.928 388.028 201.248 402.971 208.68 405.586C219.334 403.407 237.025 415.05 252.941 405.586C263.464 401.228 275.039 403.78 290.099 408.388C296.282 396.745 323.772 416.793 313.578 415.175C326.337 428.81 322.391 425.759 334.492 417.229C352.447 436.655 364.745 422.584 376.452 417.79C381.976 427.939 387.895 419.346 393.354 423.082C399.799 444.003 408.02 416.793 413.874 428.686C420.187 424.203 424.857 429.246 430.052 440.703C437.024 457.389 438.734 437.34 447.152 446.68C462.87 448.921 474.971 480.676 491.347 452.221C504.106 447.427 517.523 426.693 530.676 452.844C543.83 446.182 556.786 452.284 568.69 448.485C575.266 436.033 582.172 451.474 588.552 444.999C599.732 433.667 610.518 413.743 621.172 429.308C636.759 412.061 656.423 423.269 674.575 423.705C690.491 411.688 709.037 429.184 725.808 426.195C734.094 426.195 740.408 404.901 747.971 420.031C754.482 418.786 761.454 414.926 767.767 415.175C774.673 416.482 780.987 420.716 787.695 407.267C794.206 418.599 803.61 409.882 808.675 399.235C812.489 424.639 810.911 378.751 813.87 389.211C815.712 397.679 818.605 371.715 820.644 385.164C827.616 380.183 828.471 365.613 838.993 379.249C852.147 374.641 864.445 370.532 876.546 376.758C889.568 373.022 901.143 374.454 914.823 373.458C928.371 365.675 942.051 382.611 955.599 373.396C963.359 372.338 968.752 374.33 976.315 376.385C979.67 361.628 982.497 372.088 986.049 376.883C992.626 378.564 998.084 388.588 1004.66 382.486C1012.68 395.001 1018.74 391.515 1026.76 384.292C1030.7 382.3 1032.74 381.366 1036.69 388.028C1049.84 395.749 1060.63 386.16 1071.61 396.869C1082 405.773 1099.83 397.865 1112.06 391.639C1117.78 384.417 1124.23 378.253 1138.63 385.164C1135.67 391.515 1146.39 402.224 1156.52 379.124C1177.76 353.036 1181.71 377.07 1190.52 388.028C1200.58 390.394 1231.23 401.601 1232.35 390.83C1255.43 392.262 1268.45 403.158 1282 402.784C1269.05 402.722 1304.49 389.522 1299.23 409.384C1312.39 409.82 1326.86 429.059 1318.44 426.382C1322.05 435.722 1350.93 442.695 1354.67 435.161C1355.86 417.977 1399.99 454.836 1371.97 446.618C1377.36 457.887 1392.29 464.425 1391.04 449.482C1408.67 442.944 1395.38 437.278 1425.11 458.136C1431.16 448.921 1437.02 451.101 1442.93 454.463V60.3988H1443Z" fill="#046604" fill-opacity="0.05"/>
</svg>
